#N canvas 264 23 727 607 10;
#X obj 234 198 *~;
#X obj 234 227 *~ 0.1;
#X obj 278 228 env~;
#X obj 315 227 - 100;
#X obj 376 112 vsl 20 30 0 1 0 0 empty empty empty 0 -9 0 10 -262130
-1 -1 300 1;
#X obj 297 85 knob 32 32 0 127 0 0 empty empty empty 0 -8 0 8 -262144
-1 -1 500 1;
#X obj 315 157 osc~ 2;
#X obj 250 163 *~;
#X obj 117 446 vu 15 120 empty empty -1 -8 0 10 -66577 -1 1 0;
#X obj 185 443 vu 15 120 empty empty -1 -8 0 10 -66577 -1 1 0;
#X obj 112 416 r toLVU;
#X obj 185 415 r toRVU;
#X obj 315 252 s toLVU;
#X obj 382 538 output~;
#X msg 335 102 \$1 5;
#X obj 298 127 line~;
#X obj 234 127 osc~ 150;
#X floatatom 376 154 5 0 0 0 - - -;
#X obj 27 88 osc~ 39;
#X obj 27 116 *~ 0.1;
#X obj 27 143 env~;
#X obj 27 168 - 100;
#X obj 27 197 s toPVU;
#X obj 42 450 vu 15 120 empty empty -1 -8 0 10 -66577 -1 1 0;
#X obj 40 414 r toPVU;
#X text 23 53 carrier frequency;
#X obj 92 99 knob 32 32 20 50 0 0 empty empty carrier 0 -8 0 8 -204800
-1 -1 1900 1;
#X floatatom 134 114 5 0 0 0 - - -;
#X obj 97 161 vsl 8 75 0 2 0 0 empty empty vol 0 -9 0 10 -204786 -1
-1 4800 1;
#X obj 476 191 *~;
#X obj 476 220 *~ 0.1;
#X obj 444 242 env~;
#X obj 444 267 - 100;
#X obj 604 95 vsl 20 30 0 1 0 0 empty empty empty 0 -9 0 10 -262130
-1 -1 300 1;
#X obj 566 37 knob 32 32 0 127 0 0 empty empty empty 0 -8 0 8 -262144
-1 -1 200 1;
#X obj 557 150 osc~ 2;
#X obj 492 156 *~;
#X msg 608 31 \$1 5;
#X obj 609 56 line~;
#X obj 475 125 osc~ 150;
#X floatatom 608 147 5 0 0 0 - - -;
#X obj 444 296 s toRVU;
#X obj 594 308 *~ 0.1;
#X obj 656 326 vsl 8 75 0 2 0 0 empty empty vol 0 -9 0 10 -204786 -1
-1 5600 1;
#X obj 593 208 adc~;
#X obj 608 240 env~;
#X obj 589 335 env~;
#X obj 589 360 - 100;
#X obj 589 389 s toSIGVU;
#X obj 265 444 vu 15 120 empty empty -1 -8 0 10 -66577 -1 1 0;
#X obj 271 411 r toSIGVU;
#X obj 389 372 mixer~ 4;
#X obj 634 269 - 100;
#X msg 527 457 1 \$1;
#X msg 527 477 2 \$1;
#X msg 526 498 3 \$1;
#X msg 526 438 0 \$1;
#X obj 567 472 vsl 8 75 0 2 0 0 empty empty vol 0 -9 0 10 -204786 -1
-1 5800 1;
#X obj 588 472 vsl 8 75 0 2 0 0 empty empty vol 0 -9 0 10 -204786 -1
-1 0 1;
#X obj 652 470 vsl 8 75 0 2 0 0 empty empty vol 0 -9 0 10 -204786 -1
-1 5700 1;
#X obj 610 472 vsl 8 75 0 2 0 0 empty empty vol 0 -9 0 10 -204786 -1
-1 0 1;
#X msg 578 427 0;
#X text 22 342 NB find the carrier frequency first (around 38hz) then
you can add harmonics of mic input to have fun NEVER go higher than
3000hz for low freq shaker or it brakes.;
#X obj 197 40 vsl 10 200 20 3000 0 0 empty empty empty 0 -9 0 10 -261234
-1 -1 300 1;
#X floatatom 235 75 5 0 0 0 - - -;
#X text 295 65 vol;
#X text 400 133 beating;
#X text 195 19 FREQ;
#X obj 445 23 vsl 10 200 20 3000 0 0 empty empty empty 0 -9 0 10 -261234
-1 -1 0 1;
#X floatatom 472 97 5 0 0 0 - - -;
#X text 445 4 FREQ;
#X obj 225 42 int;
#X msg 71 22 loadbang;
#X text 568 561 MIXER;
#X text 646 556 MIC;
#X connect 0 0 1 0;
#X connect 1 0 2 0;
#X connect 1 0 51 1;
#X connect 2 0 3 0;
#X connect 3 0 12 0;
#X connect 4 0 6 0;
#X connect 4 0 17 0;
#X connect 5 0 14 0;
#X connect 6 0 7 0;
#X connect 7 0 0 1;
#X connect 10 0 8 0;
#X connect 11 0 9 0;
#X connect 14 0 15 0;
#X connect 15 0 7 1;
#X connect 16 0 0 0;
#X connect 18 0 19 0;
#X connect 19 0 20 0;
#X connect 19 0 51 4;
#X connect 20 0 21 0;
#X connect 21 0 22 0;
#X connect 24 0 23 0;
#X connect 26 0 18 1;
#X connect 26 0 27 0;
#X connect 28 0 19 1;
#X connect 29 0 30 0;
#X connect 30 0 31 0;
#X connect 30 0 51 3;
#X connect 31 0 32 0;
#X connect 32 0 41 0;
#X connect 33 0 35 0;
#X connect 33 0 40 0;
#X connect 34 0 37 0;
#X connect 35 0 36 0;
#X connect 36 0 29 1;
#X connect 37 0 38 0;
#X connect 38 0 36 1;
#X connect 39 0 29 0;
#X connect 42 0 46 0;
#X connect 42 0 51 2;
#X connect 43 0 42 1;
#X connect 44 0 45 0;
#X connect 44 0 42 0;
#X connect 45 0 52 0;
#X connect 46 0 47 0;
#X connect 47 0 48 0;
#X connect 50 0 49 0;
#X connect 51 0 13 1;
#X connect 51 0 13 0;
#X connect 53 0 51 0;
#X connect 54 0 51 0;
#X connect 55 0 51 0;
#X connect 56 0 51 0;
#X connect 57 0 56 0;
#X connect 58 0 53 0;
#X connect 59 0 54 0;
#X connect 60 0 55 0;
#X connect 61 0 57 0;
#X connect 61 0 58 0;
#X connect 61 0 59 0;
#X connect 61 0 60 0;
#X connect 63 0 71 0;
#X connect 64 0 16 1;
#X connect 68 0 69 0;
#X connect 69 0 39 1;
#X connect 71 0 64 0;
